G04 Layer: TopLayer*
G04 EasyEDA v6.4.19.4, 2021-04-04T11:51:27+01:00*
G04 4b0eb47da5f842609b4c8b729e81160f,e7a3d4c674b94ea3b1133014d1bc3374,10*
G04 Gerber Generator version 0.2*
G04 Scale: 100 percent, Rotated: No, Reflected: No *
G04 Dimensions in millimeters *
G04 leading zeros omitted , absolute positions ,4 integer and 5 decimal *
%FSLAX45Y45*%
%MOMM*%

%ADD10C,0.2540*%
%ADD11R,1.5500X1.0000*%
%ADD12C,5.0800*%
%ADD13C,2.0320*%
%ADD14R,1.5240X1.5240*%
%ADD15C,1.5240*%

%LPD*%
G36*
X-2783840Y-1524000D02*
G01*
X-2787751Y-1523238D01*
X-2791002Y-1521002D01*
X-2793238Y-1517751D01*
X-2794000Y-1513840D01*
X-2794000Y1513840D01*
X-2793238Y1517751D01*
X-2791002Y1521002D01*
X-2787751Y1523238D01*
X-2783840Y1524000D01*
X2783840Y1524000D01*
X2787751Y1523238D01*
X2791002Y1521002D01*
X2793238Y1517751D01*
X2794000Y1513840D01*
X2794000Y-1513840D01*
X2793238Y-1517751D01*
X2791002Y-1521002D01*
X2787751Y-1523238D01*
X2783840Y-1524000D01*
G37*

%LPC*%
G36*
X762000Y-1295603D02*
G01*
X777341Y-1294688D01*
X792429Y-1291945D01*
X807110Y-1287373D01*
X821131Y-1281074D01*
X834288Y-1273098D01*
X846378Y-1263650D01*
X857250Y-1252778D01*
X866698Y-1240688D01*
X874674Y-1227531D01*
X880973Y-1213510D01*
X885545Y-1198829D01*
X888288Y-1183741D01*
X889253Y-1168400D01*
X888288Y-1153058D01*
X885545Y-1137920D01*
X880973Y-1123289D01*
X874674Y-1109268D01*
X866698Y-1096111D01*
X857250Y-1084021D01*
X846378Y-1073150D01*
X834288Y-1063701D01*
X821131Y-1055725D01*
X807110Y-1049426D01*
X792429Y-1044854D01*
X777341Y-1042060D01*
X762000Y-1041146D01*
X746658Y-1042060D01*
X731570Y-1044854D01*
X716889Y-1049426D01*
X702868Y-1055725D01*
X689711Y-1063701D01*
X677621Y-1073150D01*
X666750Y-1084021D01*
X657301Y-1096111D01*
X649325Y-1109268D01*
X643026Y-1123289D01*
X638454Y-1137920D01*
X635711Y-1153058D01*
X634746Y-1168400D01*
X635711Y-1183741D01*
X638454Y-1198829D01*
X643026Y-1213510D01*
X649325Y-1227531D01*
X657301Y-1240688D01*
X666750Y-1252778D01*
X677621Y-1263650D01*
X689711Y-1273098D01*
X702868Y-1281074D01*
X716889Y-1287373D01*
X731570Y-1291945D01*
X746658Y-1294688D01*
G37*
G36*
X-762000Y-1295603D02*
G01*
X-746658Y-1294688D01*
X-731570Y-1291945D01*
X-716889Y-1287373D01*
X-702868Y-1281074D01*
X-689711Y-1273098D01*
X-677621Y-1263650D01*
X-666750Y-1252778D01*
X-657301Y-1240688D01*
X-649325Y-1227531D01*
X-643026Y-1213510D01*
X-638454Y-1198829D01*
X-635711Y-1183741D01*
X-634746Y-1168400D01*
X-635711Y-1153058D01*
X-638454Y-1137920D01*
X-643026Y-1123289D01*
X-649325Y-1109268D01*
X-657301Y-1096111D01*
X-666750Y-1084021D01*
X-677621Y-1073150D01*
X-689711Y-1063701D01*
X-702868Y-1055725D01*
X-716889Y-1049426D01*
X-731570Y-1044854D01*
X-746658Y-1042060D01*
X-762000Y-1041146D01*
X-777341Y-1042060D01*
X-792429Y-1044854D01*
X-807110Y-1049426D01*
X-821131Y-1055725D01*
X-834288Y-1063701D01*
X-846378Y-1073150D01*
X-857250Y-1084021D01*
X-866698Y-1096111D01*
X-874674Y-1109268D01*
X-880973Y-1123289D01*
X-885545Y-1137920D01*
X-888288Y-1153058D01*
X-889253Y-1168400D01*
X-888288Y-1183741D01*
X-885545Y-1198829D01*
X-880973Y-1213510D01*
X-874674Y-1227531D01*
X-866698Y-1240688D01*
X-857250Y-1252778D01*
X-846378Y-1263650D01*
X-834288Y-1273098D01*
X-821131Y-1281074D01*
X-807110Y-1287373D01*
X-792429Y-1291945D01*
X-777341Y-1294688D01*
G37*
G36*
X-2108911Y-810666D02*
G01*
X-2077110Y-810666D01*
X-2077110Y-766318D01*
X-2135174Y-766318D01*
X-2135174Y-784402D01*
X-2134463Y-790702D01*
X-2132533Y-796086D01*
X-2129485Y-800963D01*
X-2125472Y-804976D01*
X-2120595Y-808024D01*
X-2115210Y-809955D01*
G37*
G36*
X-1986889Y-810666D02*
G01*
X-1955088Y-810666D01*
X-1948789Y-809955D01*
X-1943404Y-808024D01*
X-1938528Y-804976D01*
X-1934514Y-800963D01*
X-1931466Y-796086D01*
X-1929536Y-790702D01*
X-1928825Y-784402D01*
X-1928825Y-766318D01*
X-1986889Y-766318D01*
G37*
G36*
X-1727911Y-810666D02*
G01*
X-1696110Y-810666D01*
X-1696110Y-766318D01*
X-1754174Y-766318D01*
X-1754174Y-784402D01*
X-1753463Y-790702D01*
X-1751533Y-796086D01*
X-1748485Y-800963D01*
X-1744472Y-804976D01*
X-1739595Y-808024D01*
X-1734210Y-809955D01*
G37*
G36*
X-1605889Y-810666D02*
G01*
X-1574088Y-810666D01*
X-1567789Y-809955D01*
X-1562404Y-808024D01*
X-1557528Y-804976D01*
X-1553514Y-800963D01*
X-1550466Y-796086D01*
X-1548536Y-790702D01*
X-1547825Y-784402D01*
X-1547825Y-766318D01*
X-1605889Y-766318D01*
G37*
G36*
X-2135174Y-703630D02*
G01*
X-2077110Y-703630D01*
X-2077110Y-659333D01*
X-2108911Y-659333D01*
X-2115210Y-660044D01*
X-2120595Y-661924D01*
X-2125472Y-664972D01*
X-2129485Y-669036D01*
X-2132533Y-673912D01*
X-2134463Y-679297D01*
X-2135174Y-685546D01*
G37*
G36*
X-1605889Y-703630D02*
G01*
X-1547825Y-703630D01*
X-1547825Y-685546D01*
X-1548536Y-679297D01*
X-1550466Y-673912D01*
X-1553514Y-669036D01*
X-1557528Y-664972D01*
X-1562404Y-661924D01*
X-1567789Y-660044D01*
X-1574088Y-659333D01*
X-1605889Y-659333D01*
G37*
G36*
X-1754174Y-703630D02*
G01*
X-1696110Y-703630D01*
X-1696110Y-659333D01*
X-1727911Y-659333D01*
X-1734210Y-660044D01*
X-1739595Y-661924D01*
X-1744472Y-664972D01*
X-1748485Y-669036D01*
X-1751533Y-673912D01*
X-1753463Y-679297D01*
X-1754174Y-685546D01*
G37*
G36*
X-1986889Y-703630D02*
G01*
X-1928825Y-703630D01*
X-1928825Y-685546D01*
X-1929536Y-679297D01*
X-1931466Y-673912D01*
X-1934514Y-669036D01*
X-1938528Y-664972D01*
X-1943404Y-661924D01*
X-1948789Y-660044D01*
X-1955088Y-659333D01*
X-1986889Y-659333D01*
G37*
G36*
X-1727911Y-610666D02*
G01*
X-1574088Y-610666D01*
X-1567789Y-609955D01*
X-1562404Y-608025D01*
X-1557528Y-604977D01*
X-1553514Y-600964D01*
X-1550466Y-596087D01*
X-1548536Y-590702D01*
X-1547825Y-584403D01*
X-1547825Y-485546D01*
X-1548536Y-479298D01*
X-1550466Y-473913D01*
X-1553514Y-469036D01*
X-1557528Y-464972D01*
X-1562404Y-461924D01*
X-1567789Y-460044D01*
X-1574088Y-459333D01*
X-1602486Y-459333D01*
X-1606397Y-458571D01*
X-1609648Y-456387D01*
X-1611884Y-453085D01*
X-1612646Y-449173D01*
X-1612646Y915162D01*
X-1611985Y918718D01*
X-1610156Y921816D01*
X-1607362Y924052D01*
X-1596186Y930198D01*
X-1585264Y938225D01*
X-1575460Y947724D01*
X-1567027Y958392D01*
X-1560118Y970076D01*
X-1554784Y982624D01*
X-1551228Y995730D01*
X-1549400Y1009192D01*
X-1549400Y1022807D01*
X-1551228Y1036269D01*
X-1554784Y1049426D01*
X-1560118Y1061923D01*
X-1567027Y1073658D01*
X-1575460Y1084326D01*
X-1585264Y1093774D01*
X-1596186Y1101852D01*
X-1608124Y1108354D01*
X-1620824Y1113282D01*
X-1634083Y1116431D01*
X-1647596Y1117803D01*
X-1661210Y1117346D01*
X-1674622Y1115060D01*
X-1687575Y1111046D01*
X-1699920Y1105306D01*
X-1711401Y1097991D01*
X-1721815Y1089202D01*
X-1730908Y1079093D01*
X-1737969Y1068882D01*
X-1740865Y1066038D01*
X-1744624Y1064615D01*
X-1748688Y1064768D01*
X-1752346Y1066444D01*
X-1755089Y1069441D01*
X-1757527Y1073658D01*
X-1765960Y1084326D01*
X-1775764Y1093774D01*
X-1786686Y1101852D01*
X-1797050Y1107490D01*
X-1797050Y1060450D01*
X-1757425Y1060450D01*
X-1753616Y1059738D01*
X-1750364Y1057656D01*
X-1748180Y1054506D01*
X-1747266Y1050798D01*
X-1747824Y1046987D01*
X-1749196Y1042924D01*
X-1751939Y1029563D01*
X-1752854Y1016000D01*
X-1751939Y1002436D01*
X-1749196Y989126D01*
X-1747824Y985062D01*
X-1747266Y981252D01*
X-1748180Y977493D01*
X-1750364Y974344D01*
X-1753616Y972261D01*
X-1757425Y971550D01*
X-1797050Y971550D01*
X-1797050Y924509D01*
X-1786686Y930198D01*
X-1775764Y938225D01*
X-1765960Y947724D01*
X-1757527Y958392D01*
X-1755089Y962558D01*
X-1752346Y965555D01*
X-1748688Y967282D01*
X-1744624Y967384D01*
X-1740865Y965962D01*
X-1737969Y963117D01*
X-1730908Y952906D01*
X-1721815Y942797D01*
X-1711401Y934008D01*
X-1699920Y926693D01*
X-1695246Y924509D01*
X-1692148Y922274D01*
X-1690065Y919073D01*
X-1689354Y915314D01*
X-1689354Y-449173D01*
X-1690116Y-453085D01*
X-1692351Y-456387D01*
X-1695602Y-458571D01*
X-1699514Y-459333D01*
X-1727911Y-459333D01*
X-1734210Y-460044D01*
X-1739595Y-461924D01*
X-1744472Y-464972D01*
X-1748485Y-469036D01*
X-1751533Y-473913D01*
X-1753463Y-479298D01*
X-1754174Y-485546D01*
X-1754174Y-584403D01*
X-1753463Y-590702D01*
X-1751533Y-596087D01*
X-1748485Y-600964D01*
X-1744472Y-604977D01*
X-1739595Y-608025D01*
X-1734210Y-609955D01*
G37*
G36*
X-2108911Y-610666D02*
G01*
X-1955088Y-610666D01*
X-1948789Y-609955D01*
X-1943404Y-608025D01*
X-1938528Y-604977D01*
X-1934514Y-600964D01*
X-1931466Y-596087D01*
X-1929536Y-590702D01*
X-1928825Y-584403D01*
X-1928825Y-485546D01*
X-1929536Y-479298D01*
X-1931466Y-473913D01*
X-1934514Y-469036D01*
X-1938528Y-464972D01*
X-1943404Y-461924D01*
X-1948789Y-460044D01*
X-1955088Y-459333D01*
X-1983486Y-459333D01*
X-1987397Y-458571D01*
X-1990648Y-456387D01*
X-1992884Y-453085D01*
X-1993646Y-449173D01*
X-1993646Y903986D01*
X-1992884Y907897D01*
X-1990648Y911199D01*
X-1987397Y913384D01*
X-1983486Y914146D01*
X-1956358Y914146D01*
X-1950110Y914857D01*
X-1944674Y916736D01*
X-1939848Y919784D01*
X-1935784Y923848D01*
X-1932736Y928725D01*
X-1930857Y934110D01*
X-1930450Y937717D01*
X-1929282Y941374D01*
X-1926843Y944371D01*
X-1923440Y946251D01*
X-1919630Y946708D01*
X-1915922Y945692D01*
X-1901901Y934008D01*
X-1890420Y926693D01*
X-1885950Y924610D01*
X-1885950Y971550D01*
X-1919986Y971550D01*
X-1923897Y972312D01*
X-1927148Y974547D01*
X-1929384Y977849D01*
X-1930146Y981710D01*
X-1930146Y1050290D01*
X-1929384Y1054201D01*
X-1927148Y1057503D01*
X-1923897Y1059688D01*
X-1919986Y1060450D01*
X-1885950Y1060450D01*
X-1885950Y1107389D01*
X-1890420Y1105306D01*
X-1901901Y1097991D01*
X-1915922Y1086307D01*
X-1919630Y1085291D01*
X-1923440Y1085748D01*
X-1926843Y1087628D01*
X-1929282Y1090625D01*
X-1930450Y1094282D01*
X-1930857Y1097889D01*
X-1932736Y1103325D01*
X-1935784Y1108151D01*
X-1939848Y1112215D01*
X-1944674Y1115263D01*
X-1950110Y1117142D01*
X-1956358Y1117854D01*
X-2107641Y1117854D01*
X-2113889Y1117142D01*
X-2119325Y1115263D01*
X-2124151Y1112215D01*
X-2128215Y1108151D01*
X-2131263Y1103325D01*
X-2133142Y1097889D01*
X-2133854Y1091641D01*
X-2133854Y940358D01*
X-2133142Y934110D01*
X-2131263Y928725D01*
X-2128215Y923848D01*
X-2124151Y919784D01*
X-2119325Y916736D01*
X-2113889Y914857D01*
X-2107641Y914146D01*
X-2080514Y914146D01*
X-2076602Y913384D01*
X-2073351Y911199D01*
X-2071116Y907897D01*
X-2070354Y903986D01*
X-2070354Y-449173D01*
X-2071116Y-453085D01*
X-2073351Y-456387D01*
X-2076602Y-458571D01*
X-2080514Y-459333D01*
X-2108911Y-459333D01*
X-2115210Y-460044D01*
X-2120595Y-461924D01*
X-2125472Y-464972D01*
X-2129485Y-469036D01*
X-2132533Y-473913D01*
X-2134463Y-479298D01*
X-2135174Y-485546D01*
X-2135174Y-584403D01*
X-2134463Y-590702D01*
X-2132533Y-596087D01*
X-2129485Y-600964D01*
X-2125472Y-604977D01*
X-2120595Y-608025D01*
X-2115210Y-609955D01*
G37*
G36*
X1600200Y-381203D02*
G01*
X1615541Y-380288D01*
X1630629Y-377545D01*
X1645310Y-372973D01*
X1659331Y-366674D01*
X1672488Y-358698D01*
X1684578Y-349250D01*
X1695450Y-338378D01*
X1704898Y-326288D01*
X1712874Y-313131D01*
X1719173Y-299110D01*
X1723745Y-284429D01*
X1726488Y-269341D01*
X1727454Y-254000D01*
X1726488Y-238658D01*
X1723745Y-223520D01*
X1719173Y-208889D01*
X1712874Y-194868D01*
X1704898Y-181711D01*
X1695450Y-169621D01*
X1684578Y-158750D01*
X1672488Y-149301D01*
X1659331Y-141325D01*
X1648053Y-136245D01*
X1646123Y-134874D01*
X1644142Y-134670D01*
X1630629Y-130454D01*
X1615541Y-127660D01*
X1600200Y-126746D01*
X1584858Y-127660D01*
X1569770Y-130454D01*
X1556258Y-134670D01*
X1554276Y-134874D01*
X1552346Y-136245D01*
X1541068Y-141325D01*
X1527911Y-149301D01*
X1515821Y-158750D01*
X1504950Y-169621D01*
X1495501Y-181711D01*
X1487525Y-194868D01*
X1481226Y-208889D01*
X1476654Y-223520D01*
X1473911Y-238658D01*
X1472946Y-254000D01*
X1473911Y-269341D01*
X1476654Y-284429D01*
X1481226Y-299110D01*
X1487525Y-313131D01*
X1495501Y-326288D01*
X1504950Y-338378D01*
X1515821Y-349250D01*
X1527911Y-358698D01*
X1541068Y-366674D01*
X1555089Y-372973D01*
X1569770Y-377545D01*
X1584858Y-380288D01*
G37*
G36*
X2266645Y-245770D02*
G01*
X2266645Y-133350D01*
X2154224Y-133350D01*
X2165908Y-152958D01*
X2179320Y-171754D01*
X2194255Y-189382D01*
X2210612Y-205740D01*
X2228240Y-220675D01*
X2247036Y-234086D01*
G37*
G36*
X2533345Y-245770D02*
G01*
X2552954Y-234086D01*
X2571750Y-220675D01*
X2589377Y-205740D01*
X2605735Y-189382D01*
X2620670Y-171754D01*
X2634081Y-152958D01*
X2645765Y-133350D01*
X2533345Y-133350D01*
G37*
G36*
X-2533345Y-245770D02*
G01*
X-2533345Y-133350D01*
X-2645765Y-133350D01*
X-2634081Y-152958D01*
X-2620670Y-171754D01*
X-2605735Y-189382D01*
X-2589377Y-205740D01*
X-2571750Y-220675D01*
X-2552954Y-234086D01*
G37*
G36*
X-2266645Y-245770D02*
G01*
X-2247036Y-234086D01*
X-2228240Y-220675D01*
X-2210612Y-205740D01*
X-2194255Y-189382D01*
X-2179320Y-171754D01*
X-2165908Y-152958D01*
X-2154224Y-133350D01*
X-2266645Y-133350D01*
G37*
G36*
X1543050Y-113537D02*
G01*
X1543050Y-57150D01*
X1486662Y-57150D01*
X1487525Y-59131D01*
X1495501Y-72288D01*
X1504950Y-84378D01*
X1515821Y-95250D01*
X1527911Y-104698D01*
X1541068Y-112674D01*
G37*
G36*
X1657350Y-113537D02*
G01*
X1659331Y-112674D01*
X1672488Y-104698D01*
X1684578Y-95250D01*
X1695450Y-84378D01*
X1704898Y-72288D01*
X1712874Y-59131D01*
X1713738Y-57150D01*
X1657350Y-57150D01*
G37*
G36*
X1486662Y57150D02*
G01*
X1543050Y57150D01*
X1543050Y113537D01*
X1541068Y112674D01*
X1527911Y104698D01*
X1515821Y95250D01*
X1504950Y84378D01*
X1495501Y72288D01*
X1487525Y59131D01*
G37*
G36*
X1657350Y57150D02*
G01*
X1713738Y57150D01*
X1712874Y59131D01*
X1704898Y72288D01*
X1695450Y84378D01*
X1684578Y95250D01*
X1672488Y104698D01*
X1659331Y112674D01*
X1657350Y113537D01*
G37*
G36*
X1600200Y126796D02*
G01*
X1615541Y127711D01*
X1630629Y130454D01*
X1644142Y134670D01*
X1646123Y134924D01*
X1648053Y136296D01*
X1659331Y141325D01*
X1672488Y149301D01*
X1684578Y158750D01*
X1695450Y169621D01*
X1704898Y181711D01*
X1712874Y194868D01*
X1719173Y208889D01*
X1723745Y223570D01*
X1726488Y238658D01*
X1727454Y254000D01*
X1726488Y269341D01*
X1723745Y284480D01*
X1719173Y299110D01*
X1712874Y313131D01*
X1704898Y326288D01*
X1695450Y338378D01*
X1684578Y349250D01*
X1672488Y358698D01*
X1659331Y366674D01*
X1645310Y372973D01*
X1630629Y377545D01*
X1615541Y380339D01*
X1600200Y381254D01*
X1584858Y380339D01*
X1569770Y377545D01*
X1555089Y372973D01*
X1541068Y366674D01*
X1527911Y358698D01*
X1515821Y349250D01*
X1504950Y338378D01*
X1495501Y326288D01*
X1487525Y313131D01*
X1481226Y299110D01*
X1476654Y284480D01*
X1473911Y269341D01*
X1472946Y254000D01*
X1473911Y238658D01*
X1476654Y223570D01*
X1481226Y208889D01*
X1487525Y194868D01*
X1495501Y181711D01*
X1504950Y169621D01*
X1515821Y158750D01*
X1527911Y149301D01*
X1541068Y141325D01*
X1552346Y136296D01*
X1554276Y134924D01*
X1556258Y134670D01*
X1569770Y130454D01*
X1584858Y127711D01*
G37*
G36*
X2533345Y133350D02*
G01*
X2645765Y133350D01*
X2634081Y152958D01*
X2620670Y171754D01*
X2605735Y189382D01*
X2589377Y205740D01*
X2571750Y220675D01*
X2552954Y234086D01*
X2533345Y245770D01*
G37*
G36*
X2154224Y133350D02*
G01*
X2266645Y133350D01*
X2266645Y245770D01*
X2247036Y234086D01*
X2228240Y220675D01*
X2210612Y205740D01*
X2194255Y189382D01*
X2179320Y171754D01*
X2165908Y152958D01*
G37*
G36*
X-2645765Y133350D02*
G01*
X-2533345Y133350D01*
X-2533345Y245770D01*
X-2552954Y234086D01*
X-2571750Y220675D01*
X-2589377Y205740D01*
X-2605735Y189382D01*
X-2620670Y171754D01*
X-2634081Y152958D01*
G37*
G36*
X-2266645Y133350D02*
G01*
X-2154224Y133350D01*
X-2165908Y152958D01*
X-2179320Y171754D01*
X-2194255Y189382D01*
X-2210612Y205740D01*
X-2228240Y220675D01*
X-2247036Y234086D01*
X-2266645Y245770D01*
G37*
G36*
X-762000Y1041196D02*
G01*
X-746658Y1042111D01*
X-731570Y1044854D01*
X-716889Y1049426D01*
X-702868Y1055725D01*
X-689711Y1063701D01*
X-677621Y1073150D01*
X-666750Y1084021D01*
X-657301Y1096111D01*
X-649325Y1109268D01*
X-643026Y1123289D01*
X-638454Y1137970D01*
X-635711Y1153058D01*
X-634746Y1168400D01*
X-635711Y1183741D01*
X-638454Y1198880D01*
X-643026Y1213510D01*
X-649325Y1227531D01*
X-657301Y1240688D01*
X-666750Y1252778D01*
X-677621Y1263650D01*
X-689711Y1273098D01*
X-702868Y1281074D01*
X-716889Y1287373D01*
X-731570Y1291945D01*
X-746658Y1294739D01*
X-762000Y1295654D01*
X-777341Y1294739D01*
X-792429Y1291945D01*
X-807110Y1287373D01*
X-821131Y1281074D01*
X-834288Y1273098D01*
X-846378Y1263650D01*
X-857250Y1252778D01*
X-866698Y1240688D01*
X-874674Y1227531D01*
X-880973Y1213510D01*
X-885545Y1198880D01*
X-888288Y1183741D01*
X-889253Y1168400D01*
X-888288Y1153058D01*
X-885545Y1137970D01*
X-880973Y1123289D01*
X-874674Y1109268D01*
X-866698Y1096111D01*
X-857250Y1084021D01*
X-846378Y1073150D01*
X-834288Y1063701D01*
X-821131Y1055725D01*
X-807110Y1049426D01*
X-792429Y1044854D01*
X-777341Y1042111D01*
G37*
G36*
X762000Y1041196D02*
G01*
X777341Y1042111D01*
X792429Y1044854D01*
X807110Y1049426D01*
X821131Y1055725D01*
X834288Y1063701D01*
X846378Y1073150D01*
X857250Y1084021D01*
X866698Y1096111D01*
X874674Y1109268D01*
X880973Y1123289D01*
X885545Y1137970D01*
X888288Y1153058D01*
X889253Y1168400D01*
X888288Y1183741D01*
X885545Y1198880D01*
X880973Y1213510D01*
X874674Y1227531D01*
X866698Y1240688D01*
X857250Y1252778D01*
X846378Y1263650D01*
X834288Y1273098D01*
X821131Y1281074D01*
X807110Y1287373D01*
X792429Y1291945D01*
X777341Y1294739D01*
X762000Y1295654D01*
X746658Y1294739D01*
X731570Y1291945D01*
X716889Y1287373D01*
X702868Y1281074D01*
X689711Y1273098D01*
X677621Y1263650D01*
X666750Y1252778D01*
X657301Y1240688D01*
X649325Y1227531D01*
X643026Y1213510D01*
X638454Y1198880D01*
X635711Y1183741D01*
X634746Y1168400D01*
X635711Y1153058D01*
X638454Y1137970D01*
X643026Y1123289D01*
X649325Y1109268D01*
X657301Y1096111D01*
X666750Y1084021D01*
X677621Y1073150D01*
X689711Y1063701D01*
X702868Y1055725D01*
X716889Y1049426D01*
X731570Y1044854D01*
X746658Y1042111D01*
G37*

%LPD*%
D10*
X-1841500Y-622302D02*
G01*
X-1954204Y-735007D01*
X-2032000Y-735007D01*
X-1841500Y1015992D02*
G01*
X-1841500Y-622302D01*
X-1828800Y-635002D01*
X-1728795Y-735007D01*
X-1651000Y-735007D01*
X-2032000Y1015992D02*
G01*
X-2032000Y-535007D01*
X-2032000Y-535007D01*
X-1651000Y1015992D02*
G01*
X-1651000Y-535007D01*
X-1651000Y-535007D01*
D11*
G01*
X-2032000Y-735007D03*
G01*
X-2032000Y-535007D03*
G01*
X-1651000Y-535007D03*
G01*
X-1651000Y-735007D03*
D12*
G01*
X2399995Y-7D03*
G01*
X-2399995Y-7D03*
D13*
G01*
X1600200Y-254007D03*
G01*
X1600200Y-7D03*
G01*
X1600200Y253992D03*
G01*
X-762000Y-1168407D03*
G01*
X-762000Y1168392D03*
G01*
X762000Y1168392D03*
G01*
X762000Y-1168407D03*
D14*
G01*
X-2032000Y1015992D03*
D15*
G01*
X-1841500Y1015992D03*
G01*
X-1651000Y1015992D03*
M02*
